<svg t="1594890970322" class="icon" viewBox="0 0 1024 1024" version="1.1" xmlns="http://www.w3.org/2000/svg" p-id="1878" xmlns:xlink="http://www.w3.org/1999/xlink" width="200" height="200"><defs><style type="text/css"></style></defs><path d="M895.026777 552.790744H142.513719a37.710281 37.710281 0 0 1-37.574876-37.574876 37.710281 37.710281 0 0 1 37.574876-37.574876h752.513058a37.710281 37.710281 0 0 1 37.574876 37.574876 37.710281 37.710281 0 0 1-37.574876 37.574876zM895.026777 221.387107h-112.724628A37.710281 37.710281 0 0 1 744.727273 183.812231a37.710281 37.710281 0 0 1 37.574876-37.574876h112.724628a37.710281 37.710281 0 0 1 37.574876 37.574876 37.710281 37.710281 0 0 1-37.574876 37.574876z m-319.894215 0h-112.724628a37.710281 37.710281 0 0 1-37.574876-37.574876 37.710281 37.710281 0 0 1 37.574876-37.574876h112.724628a37.710281 37.710281 0 0 1 37.574876 37.574876 37.710281 37.710281 0 0 1-37.574876 37.574876z m-319.894215 0H142.513719A37.710281 37.710281 0 0 1 104.938843 183.812231a37.710281 37.710281 0 0 1 37.574876-37.574876h112.724628a37.710281 37.710281 0 0 1 37.574876 37.574876 37.473322 37.473322 0 0 1-37.574876 37.574876zM887.579504 884.19438h-37.574876A37.710281 37.710281 0 0 1 812.429752 846.619504a37.710281 37.710281 0 0 1 37.574876-37.574876h37.574876a37.710281 37.710281 0 0 1 37.574876 37.574876 37.710281 37.710281 0 0 1-37.574876 37.574876z m-177.041983 0h-37.574876a37.710281 37.710281 0 0 1-37.574876-37.574876 37.710281 37.710281 0 0 1 37.574876-37.574876h37.574876a37.710281 37.710281 0 0 1 37.574876 37.574876 37.473322 37.473322 0 0 1-37.574876 37.574876z m-176.703471 0h-37.574876a37.710281 37.710281 0 0 1-37.574876-37.574876 37.710281 37.710281 0 0 1 37.574876-37.574876h37.574876a37.710281 37.710281 0 0 1 37.574876 37.574876 37.710281 37.710281 0 0 1-37.574876 37.574876z m-177.041984 0H319.21719a37.710281 37.710281 0 0 1-37.574876-37.574876 37.710281 37.710281 0 0 1 37.574876-37.574876h37.574876a37.710281 37.710281 0 0 1 37.574876 37.574876 37.236364 37.236364 0 0 1-37.574876 37.574876z m-176.703471 0H142.513719a37.710281 37.710281 0 0 1-37.574876-37.574876 37.710281 37.710281 0 0 1 37.574876-37.574876h37.574876a37.710281 37.710281 0 0 1 37.574876 37.574876 37.710281 37.710281 0 0 1-37.574876 37.574876z" p-id="1879"></path></svg>