<svg t="1596646107107" class="icon" viewBox="0 0 1024 1024" version="1.1" xmlns="http://www.w3.org/2000/svg" p-id="5218" xmlns:xlink="http://www.w3.org/1999/xlink" width="200" height="200"><defs><style type="text/css"></style></defs><path d="M734.351 168.993h-312.91c-40.679 0-73.623 38.43-73.623 85.877h349.474c20.467 0 37.059 19.103 37.059 42.746v429.575c40.643 0 73.63-38.475 73.63-85.877V254.87c0-47.447-32.987-85.877-73.63-85.877zM623.914 426.622H292.598v-42.948h331.316v42.948z m0 128.814H292.598v-42.937h331.316v42.937zM255.728 297.807c-20.299 0-36.757 19.217-36.757 42.876v472.45c0 23.676 16.472 42.87 36.757 42.87h405.056c20.299 0 36.757-19.217 36.757-42.87v-472.45c0-23.68-16.472-42.876-36.757-42.876H255.728z" fill="#d81e06" p-id="5219" data-spm-anchor-id="a313x.7781069.0.i5" class="selected"></path></svg>